<svg width="17" height="18" viewBox="0 0 17 18" fill="none" xmlns="http://www.w3.org/2000/svg">
<path d="M4.63636 5.91429C4.63636 4.93808 4.88087 3.82218 5.47699 2.97388C6.0461 2.164 6.96948 1.54286 8.5 1.54286C10.0305 1.54286 10.9539 2.164 11.523 2.97388C12.1191 3.82218 12.3636 4.93808 12.3636 5.91429C12.3636 6.34033 12.7096 6.68571 13.1364 6.68571C13.5631 6.68571 13.9091 6.34033 13.9091 5.91429C13.9091 4.72511 13.6186 3.26958 12.7882 2.0878C11.9307 0.867593 10.5359 0 8.5 0C6.46409 0 5.06928 0.867593 4.21182 2.0878C3.38137 3.26958 3.09091 4.72511 3.09091 5.91429C3.09091 6.34033 3.43687 6.68571 3.86364 6.68571C4.2904 6.68571 4.63636 6.34033 4.63636 5.91429Z" fill="#2B3235"/>
<path d="M1.54545 7.97143C1.54545 7.54538 1.19949 7.2 0.772727 7.2C0.345962 7.2 0 7.54538 0 7.97143V18H17V7.97143C17 7.54538 16.654 7.2 16.2273 7.2C15.8005 7.2 15.4545 7.54538 15.4545 7.97143V16.4571H1.54545V7.97143Z" fill="#2B3235"/>
</svg>
