<svg width="16" height="14" viewBox="0 0 16 14" fill="none" xmlns="http://www.w3.org/2000/svg">
<path fill-rule="evenodd" clip-rule="evenodd" d="M0.5 1C0.5 0.723858 0.723858 0.5 1 0.5H15C15.2761 0.5 15.5 0.723858 15.5 1C15.5 1.27614 15.2761 1.5 15 1.5H1C0.723858 1.5 0.5 1.27614 0.5 1ZM0.5 13.0044C0.5 12.7283 0.723858 12.5044 1 12.5044H15C15.2761 12.5044 15.5 12.7283 15.5 13.0044C15.5 13.2805 15.2761 13.5044 15 13.5044H1C0.723858 13.5044 0.5 13.2805 0.5 13.0044ZM1 6.50214C0.723858 6.50214 0.5 6.72599 0.5 7.00214C0.5 7.27828 0.723858 7.50214 1 7.50214H15C15.2761 7.50214 15.5 7.27828 15.5 7.00214C15.5 6.72599 15.2761 6.50214 15 6.50214H1Z" fill="#2B3235"/>
</svg>
