<svg width="12" height="12" viewBox="0 0 12 12" fill="none" xmlns="http://www.w3.org/2000/svg">
<path d="M6 8.35714C7.30181 8.35714 8.35714 7.30181 8.35714 6C8.35714 4.69819 7.30181 3.64286 6 3.64286C4.69819 3.64286 3.64286 4.69819 3.64286 6C3.64286 7.30181 4.69819 8.35714 6 8.35714Z" fill="white"/>
<path fill-rule="evenodd" clip-rule="evenodd" d="M0.5 2.07143C0.5 1.20355 1.20355 0.5 2.07143 0.5H9.92857C10.7964 0.5 11.5 1.20355 11.5 2.07143V9.92857C11.5 10.7964 10.7964 11.5 9.92857 11.5H2.07143C1.20355 11.5 0.5 10.7964 0.5 9.92857V2.07143ZM6 9.14286C7.73575 9.14286 9.14286 7.73575 9.14286 6C9.14286 4.26425 7.73575 2.85714 6 2.85714C4.26425 2.85714 2.85714 4.26425 2.85714 6C2.85714 7.73575 4.26425 9.14286 6 9.14286ZM9.73214 3.25C10.0576 3.25 10.3214 2.98617 10.3214 2.66071C10.3214 2.33526 10.0576 2.07143 9.73214 2.07143C9.40669 2.07143 9.14286 2.33526 9.14286 2.66071C9.14286 2.98617 9.40669 3.25 9.73214 3.25Z" fill="white"/>
</svg>
