<svg width="97" height="40" viewBox="0 0 97 40" fill="none" xmlns="http://www.w3.org/2000/svg">
<path d="M61.1374 2.09649C61.1374 3.25435 60.2052 4.19298 59.0552 4.19298C57.9053 4.19298 56.973 3.25435 56.973 2.09649C56.973 0.93863 57.9053 0 59.0552 0C60.2052 0 61.1374 0.93863 61.1374 2.09649Z" fill="#2B3235"/>
<path d="M8.8338 17.963H2.58721V12.7023H0V25.7623H2.58721V20.3881H8.8338V25.7623H11.421V12.6984H8.8338V17.963Z" fill="#2B3235"/>
<path d="M24.2523 25.9967C27.5543 25.9967 29.8424 24.1584 29.8424 20.5482V12.702H27.2474V20.4191C27.2474 22.5665 26.0431 23.5091 24.2523 23.5091C22.4614 23.5091 21.2572 22.5665 21.2572 20.4191V12.702H18.6622V20.5482C18.6622 24.1584 20.9503 25.9967 24.2523 25.9967Z" fill="#2B3235"/>
<path fill-rule="evenodd" clip-rule="evenodd" d="M42.3909 12.702C45.4132 12.702 47.3128 13.8324 47.3128 16.3239C47.3128 17.6381 46.5164 18.6942 45.4326 19.0971C46.6174 19.4999 47.5925 20.6186 47.5925 22.0267C47.5925 24.5378 45.8211 25.7699 42.7094 25.7699H37.0921V12.702H42.3909ZM39.6755 14.998V18.0488H42.3248C43.6145 18.0488 44.6129 17.7789 44.6129 16.5078C44.6129 15.2366 43.5951 14.998 42.3132 14.998H39.6755ZM39.6755 20.337V23.4739L42.5773 23.4817C44.003 23.4817 44.9043 23.1453 44.9043 21.8937C44.9043 20.6421 44.0069 20.337 42.5773 20.337H39.6755Z" fill="#2B3235"/>
<path fill-rule="evenodd" clip-rule="evenodd" d="M64.5905 16.3239C64.5905 13.8324 62.6909 12.702 59.6686 12.702H54.3699V25.7699H59.9871C63.0988 25.7699 64.8702 24.5378 64.8702 22.0267C64.8702 20.6186 63.8951 19.4999 62.7103 19.0971C63.7941 18.6942 64.5905 17.6381 64.5905 16.3239ZM56.9532 18.0488V14.998H59.5909C60.8729 14.998 61.8906 15.2366 61.8906 16.5078C61.8906 17.7789 60.8923 18.0488 59.6026 18.0488H56.9532ZM56.9532 23.4739V20.337H59.8551C61.2846 20.337 62.182 20.6421 62.182 21.8937C62.182 23.1453 61.2808 23.4817 59.8551 23.4817L56.9532 23.4739Z" fill="#2B3235"/>
<path d="M71.6412 25.7659V12.702H74.2284V23.3292H81.0888V25.7659H71.6412Z" fill="#2B3235"/>
<path d="M87.3077 25.7659H97V23.38H89.891V20.3761H96.5999V17.9863H89.891V15.0918H96.9262V12.702H87.3077V25.7659Z" fill="#2B3235"/>
<path d="M24.2556 40C25.8261 40 27.0992 38.7181 27.0992 37.1369C27.0992 35.5556 25.8261 34.2738 24.2556 34.2738C22.6852 34.2738 21.4121 35.5556 21.4121 37.1369C21.4121 38.7181 22.6852 40 24.2556 40Z" fill="#2B3235"/>
</svg>
