<svg width="17" height="16" viewBox="0 0 17 16" fill="none" xmlns="http://www.w3.org/2000/svg">
<path fill-rule="evenodd" clip-rule="evenodd" d="M15.224 7.41229C15.224 11.506 11.816 14.8246 7.61199 14.8246C3.408 14.8246 0 11.506 0 7.41229C0 3.31859 3.408 0 7.61199 0C11.816 0 15.224 3.31859 15.224 7.41229ZM13.7016 7.41229C13.7016 10.6872 10.9752 13.3421 7.61199 13.3421C4.2488 13.3421 1.5224 10.6872 1.5224 7.41229C1.5224 4.13733 4.2488 1.48246 7.61199 1.48246C10.9752 1.48246 13.7016 4.13733 13.7016 7.41229Z" fill="#2B3235"/>
<path d="M14.8088 12.818C14.5115 12.5285 14.0295 12.5285 13.7323 12.818C13.435 13.1075 13.435 13.5768 13.7323 13.8662L15.7006 15.7829C15.9978 16.0724 16.4798 16.0724 16.777 15.7829C17.0743 15.4934 17.0743 15.0241 16.777 14.7346L14.8088 12.818Z" fill="#2B3235"/>
</svg>
