<svg width="12" height="10" viewBox="0 0 12 10" fill="none" xmlns="http://www.w3.org/2000/svg">
<path d="M3.96042 9.5C8.1104 9.5 10.381 6.03709 10.381 3.03496C10.381 2.9376 10.3787 2.83809 10.3743 2.74074C10.8162 2.4191 11.1973 2.02072 11.5 1.56428C11.0886 1.74857 10.6519 1.86892 10.2048 1.92123C10.6757 1.63702 11.0281 1.19053 11.197 0.664532C10.7541 0.928889 10.2696 1.11537 9.76452 1.21598C9.42421 0.851815 8.97413 0.610695 8.48394 0.529899C7.99398 0.449103 7.49096 0.53313 7.05302 0.768988C6.61531 1.00485 6.26675 1.3794 6.06142 1.83475C5.85608 2.29008 5.80544 2.80085 5.91727 3.28808C5.02031 3.24273 4.14283 3.00812 3.34167 2.59939C2.5405 2.19065 1.83352 1.61696 1.26679 0.915484C0.978728 1.41565 0.890501 2.00752 1.02021 2.57076C1.14992 3.13402 1.48771 3.62644 1.96506 3.94789C1.60665 3.93645 1.25625 3.8393 0.942521 3.66449V3.69262C0.942292 4.21751 1.12242 4.72629 1.45265 5.13253C1.78265 5.53876 2.24235 5.81733 2.75317 5.9209C2.42133 6.01235 2.073 6.02569 1.73521 5.95985C1.87935 6.41124 2.15985 6.80605 2.53775 7.08917C2.91542 7.37229 3.37146 7.5296 3.8424 7.53911C3.04306 8.17135 2.05558 8.51426 1.03923 8.51264C0.859103 8.51237 0.678979 8.50124 0.5 8.47932C1.53263 9.14638 2.73369 9.50064 3.96042 9.5Z" fill="white"/>
</svg>
