<svg width="17" height="18" viewBox="0 0 17 18" fill="none" xmlns="http://www.w3.org/2000/svg">
<path fill-rule="evenodd" clip-rule="evenodd" d="M13.3571 4.8C13.3571 7.45097 11.1825 9.6 8.5 9.6C5.81747 9.6 3.64286 7.45097 3.64286 4.8C3.64286 2.14903 5.81747 0 8.5 0C11.1825 0 13.3571 2.14903 13.3571 4.8ZM11.9 4.8C11.9 6.65568 10.3778 8.16 8.5 8.16C6.62223 8.16 5.1 6.65568 5.1 4.8C5.1 2.94432 6.62223 1.44 8.5 1.44C10.3778 1.44 11.9 2.94432 11.9 4.8Z" fill="#2B3235"/>
<path d="M1.45714 17.28C1.45714 16.2354 1.84386 14.9924 2.87768 14.0094C3.90552 13.032 5.64967 12.24 8.5 12.24C11.3503 12.24 13.0945 13.032 14.1223 14.0094C15.1561 14.9924 15.5429 16.2354 15.5429 17.28C15.5429 17.6776 15.8691 18 16.2714 18C16.6738 18 17 17.6776 17 17.28C17 15.8994 16.49 14.2624 15.1326 12.9717C13.7693 11.6753 11.6277 10.8 8.5 10.8C5.37231 10.8 3.23074 11.6753 1.86737 12.9717C0.509982 14.2624 0 15.8994 0 17.28C0 17.6776 0.326193 18 0.728571 18C1.13095 18 1.45714 17.6776 1.45714 17.28Z" fill="#2B3235"/>
</svg>
